<svg xmlns="http://www.w3.org/2000/svg" viewBox="0 0 512 512" width="512" height="512">
  <rect width="512" height="512" rx="96" fill="#1e293b"/>
  
  <rect x="56" y="100" width="72" height="72" rx="7" fill="#6aaa64"/><text x="92" y="137.9" font-family="'Segoe UI','Helvetica Neue',Arial,sans-serif" font-weight="800" font-size="38" text-anchor="middle" dominant-baseline="central" fill="white">W</text>
  <rect x="138" y="100" width="72" height="72" rx="7" fill="#6aaa64"/><text x="174" y="137.9" font-family="'Segoe UI','Helvetica Neue',Arial,sans-serif" font-weight="800" font-size="38" text-anchor="middle" dominant-baseline="central" fill="white">O</text>
  <rect x="220" y="100" width="72" height="72" rx="7" fill="#6aaa64"/><text x="256" y="137.9" font-family="'Segoe UI','Helvetica Neue',Arial,sans-serif" font-weight="800" font-size="38" text-anchor="middle" dominant-baseline="central" fill="white">R</text>
  <rect x="302" y="100" width="72" height="72" rx="7" fill="#6aaa64"/><text x="338" y="137.9" font-family="'Segoe UI','Helvetica Neue',Arial,sans-serif" font-weight="800" font-size="38" text-anchor="middle" dominant-baseline="central" fill="white">D</text>
  <rect x="384" y="100" width="72" height="72" rx="7" fill="#6aaa64"/><text x="420" y="137.9" font-family="'Segoe UI','Helvetica Neue',Arial,sans-serif" font-weight="800" font-size="38" text-anchor="middle" dominant-baseline="central" fill="white">L</text>
  
  <rect x="56" y="182" width="72" height="72" rx="7" fill="#c9b458"/><text x="92" y="219.9" font-family="'Segoe UI','Helvetica Neue',Arial,sans-serif" font-weight="800" font-size="38" text-anchor="middle" dominant-baseline="central" fill="white">H</text>
  <rect x="138" y="182" width="72" height="72" rx="7" fill="#6aaa64"/><text x="174" y="219.9" font-family="'Segoe UI','Helvetica Neue',Arial,sans-serif" font-weight="800" font-size="38" text-anchor="middle" dominant-baseline="central" fill="white">I</text>
  <rect x="220" y="182" width="72" height="72" rx="7" fill="#c9b458"/><text x="256" y="219.9" font-family="'Segoe UI','Helvetica Neue',Arial,sans-serif" font-weight="800" font-size="38" text-anchor="middle" dominant-baseline="central" fill="white">N</text>
  <rect x="302" y="182" width="72" height="72" rx="7" fill="#6aaa64"/><text x="338" y="219.9" font-family="'Segoe UI','Helvetica Neue',Arial,sans-serif" font-weight="800" font-size="38" text-anchor="middle" dominant-baseline="central" fill="white">T</text>
  <rect x="384" y="182" width="72" height="72" rx="7" fill="#3a3a3c"/>
  
  <rect x="56" y="264" width="72" height="72" rx="7" fill="none" stroke="#3a3a3c" stroke-width="2"/><rect x="138" y="264" width="72" height="72" rx="7" fill="none" stroke="#3a3a3c" stroke-width="2"/><rect x="220" y="264" width="72" height="72" rx="7" fill="none" stroke="#3a3a3c" stroke-width="2"/><rect x="302" y="264" width="72" height="72" rx="7" fill="none" stroke="#3a3a3c" stroke-width="2"/><rect x="384" y="264" width="72" height="72" rx="7" fill="none" stroke="#3a3a3c" stroke-width="2"/>
  <rect x="56" y="346" width="72" height="72" rx="7" fill="none" stroke="#3a3a3c" stroke-width="2"/><rect x="138" y="346" width="72" height="72" rx="7" fill="none" stroke="#3a3a3c" stroke-width="2"/><rect x="220" y="346" width="72" height="72" rx="7" fill="none" stroke="#3a3a3c" stroke-width="2"/><rect x="302" y="346" width="72" height="72" rx="7" fill="none" stroke="#3a3a3c" stroke-width="2"/><rect x="384" y="346" width="72" height="72" rx="7" fill="none" stroke="#3a3a3c" stroke-width="2"/>
</svg>