<svg xmlns="http://www.w3.org/2000/svg" width="1200" height="630" viewBox="0 0 1200 630">
    <defs>
      <linearGradient id="bg" x1="0" y1="0" x2="1" y2="1">
        <stop offset="0" stop-color="#0f172a"/>
        <stop offset="1" stop-color="#1e293b"/>
      </linearGradient>
    </defs>
    <rect width="1200" height="630" fill="url(#bg)"/>
    <rect x="0" y="0" width="12" height="210" fill="#22a06b"/><rect x="0" y="210" width="12" height="210" fill="#9333ea"/><rect x="0" y="420" width="12" height="210" fill="#eab308"/>
    
    <g>
      <rect x="64" y="56" width="40" height="40" rx="5" fill="#22a06b"/><text x="84" y="76" font-family="Arial, 'DejaVu Sans', 'Liberation Sans', sans-serif" font-weight="800" font-size="20" fill="#fff" text-anchor="middle" dominant-baseline="central">W</text>
      <rect x="110" y="56" width="40" height="40" rx="5" fill="#eab308"/><text x="130" y="76" font-family="Arial, 'DejaVu Sans', 'Liberation Sans', sans-serif" font-weight="800" font-size="20" fill="#fff" text-anchor="middle" dominant-baseline="central">H</text>
      <text x="166" y="76" font-family="Arial, 'DejaVu Sans', 'Liberation Sans', sans-serif" font-weight="800" font-size="30" fill="#fff" dominant-baseline="middle">WordleHint</text>
    </g>
    <text x="64" y="250" font-family="Arial, 'DejaVu Sans', 'Liberation Sans', sans-serif" font-weight="800" font-size="76" fill="#fff">Best Daily Word Game</text><text x="64" y="336" font-family="Arial, 'DejaVu Sans', 'Liberation Sans', sans-serif" font-weight="800" font-size="76" fill="#fff">Hint Sites</text>
    <text x="64" y="428" font-family="Arial, 'DejaVu Sans', 'Liberation Sans', sans-serif" font-weight="500" font-size="32" fill="#94a3b8">Wordle · Connections · Strands</text>
    <text x="64" y="574" font-family="Arial, 'DejaVu Sans', 'Liberation Sans', sans-serif" font-weight="700" font-size="26" fill="#64748b">wordlehint.info</text>
    <rect x="1040" y="470" width="96" height="96" rx="12" fill="#22a06b"/><text x="1088" y="518" font-family="Arial, 'DejaVu Sans', 'Liberation Sans', sans-serif" font-weight="800" font-size="48" fill="#fff" text-anchor="middle" dominant-baseline="central">W</text><rect x="904" y="470" width="44" height="44" rx="8" fill="#eab308"/><rect x="956" y="470" width="44" height="44" rx="8" fill="#22a06b"/><rect x="904" y="522" width="44" height="44" rx="8" fill="#3b82f6"/><rect x="956" y="522" width="44" height="44" rx="8" fill="#9333ea"/><rect x="714" y="484" width="150" height="32" rx="8" fill="#eab308"/><rect x="734" y="524" width="110" height="28" rx="8" fill="#3b82f6"/>
  </svg>